<svg width="334" height="334" viewBox="0 0 334 334" fill="none" xmlns="http://www.w3.org/2000/svg">
<path d="M189.539 22.5781C189.539 35.0152 166.998 168.618 166.998 168.618C166.998 168.618 144.458 35.0152 144.458 22.5781C144.458 16.59 146.832 10.8472 151.059 6.61298C155.287 2.37876 161.02 0 166.998 0C172.976 0 178.709 2.37876 182.937 6.61298C187.164 10.8472 189.539 16.59 189.539 22.5781Z" fill="#F9F8F8"/>
<path d="M144.458 311.425C144.458 298.988 166.998 165.385 166.998 165.385C166.998 165.385 189.539 298.988 189.539 311.425C189.539 317.413 187.164 323.156 182.937 327.39C178.709 331.625 172.976 334.003 166.998 334.003C161.02 334.003 155.287 331.625 151.059 327.39C146.832 323.156 144.458 317.413 144.458 311.425Z" fill="#F9F8F8"/>
<path d="M311.422 189.536C298.985 189.536 165.382 166.995 165.382 166.995C165.382 166.995 298.985 144.455 311.422 144.455C317.41 144.455 323.153 146.83 327.387 151.057C331.621 155.284 334 161.017 334 166.995C334 172.973 331.621 178.707 327.387 182.934C323.153 187.161 317.41 189.536 311.422 189.536Z" fill="#F9F8F8"/>
<path d="M22.578 144.455C35.0151 144.455 168.618 166.995 168.618 166.995C168.618 166.995 35.0151 189.536 22.578 189.536C16.5899 189.536 10.8472 187.161 6.61293 182.934C2.37871 178.707 0 172.973 0 166.995C0 161.017 2.37871 155.284 6.61293 151.057C10.8472 146.83 16.5899 144.455 22.578 144.455Z" fill="#F9F8F8"/>
<path d="M285.281 80.8819C276.42 89.6771 165.879 168.117 165.879 168.117C165.879 168.117 244.475 57.7944 253.287 48.9514C255.388 46.8548 257.882 45.1917 260.627 44.057C263.371 42.9223 266.313 42.3383 269.284 42.3383C272.255 42.3383 275.197 42.9223 277.942 44.057C280.686 45.1917 283.18 46.8548 285.281 48.9514C287.382 51.0479 289.048 53.5369 290.185 56.2763C291.322 59.0156 291.907 61.9516 291.907 64.9166C291.907 67.8816 291.322 70.8176 290.185 73.557C289.048 76.2963 287.382 78.7853 285.281 80.8819Z" fill="#F9F8F8"/>
<path d="M48.9546 253.283C57.7977 244.471 168.12 165.875 168.12 165.875C168.12 165.875 89.6804 276.417 80.8851 285.277C76.6509 289.52 70.9082 291.903 64.92 291.903C58.9319 291.903 53.1889 289.52 48.9546 285.277C44.7204 281.034 42.3416 275.28 42.3416 269.28C42.3416 263.28 44.7204 257.526 48.9546 253.283Z" fill="#F9F8F8"/>
<path d="M253.287 285.277C244.475 276.417 165.879 165.875 165.879 165.875C165.879 165.875 276.42 244.471 285.281 253.283C289.524 257.526 291.907 263.28 291.907 269.28C291.907 275.28 289.524 281.034 285.281 285.277C281.038 289.52 275.284 291.903 269.284 291.903C263.284 291.903 257.53 289.52 253.287 285.277Z" fill="#F9F8F8"/>
<path d="M80.8851 48.9514C89.6804 57.7944 168.12 168.117 168.12 168.117C168.12 168.117 57.7977 89.6771 48.9546 80.8819C46.858 78.7853 45.1949 76.2963 44.0602 73.557C42.9256 70.8176 42.3416 67.8816 42.3416 64.9166C42.3416 61.9516 42.9256 59.0156 44.0602 56.2763C45.1949 53.5369 46.858 51.0479 48.9546 48.9514C51.0512 46.8548 53.5403 45.1917 56.2796 44.057C59.0189 42.9223 61.955 42.3383 64.92 42.3383C67.885 42.3383 70.8209 42.9223 73.5602 44.057C76.2995 45.1917 78.7885 46.8548 80.8851 48.9514Z" fill="#F9F8F8"/>
</svg>
