<svg width="105" height="32" viewBox="0 0 105 32" fill="none" xmlns="http://www.w3.org/2000/svg">
<path d="M0 32V0.622208H9.07872L19.2434 18.264H19.3303V0.622208H28.1049V32H18.7221L8.86152 14.2266H8.77465V32H0ZM41.0236 32V0.622208H49.4505V32H41.0236ZM50.394 32V0.622208H59.4729L69.6375 18.264H69.7242V0.622208H78.499V32H69.1163L59.2557 14.2266H59.1687V32H50.394ZM79.6456 32V0.622208H103.841V8.08266H88.7242V12.3395H101.365V19.2295H88.7242V24.1446H104.275V32H79.6456Z" fill="#171F26"/>
<path d="M36.9229 16.6763C41.4811 16.6763 45.1762 12.9432 45.1762 8.33813C45.1762 3.73311 41.4811 0 36.9229 0C32.3646 0 28.6695 3.73311 28.6695 8.33813C28.6695 12.9432 32.3646 16.6763 36.9229 16.6763Z" fill="#FFD600"/>
</svg>
